<?xml version="1.0" encoding="utf-8"?>
<!-- Generator: Adobe Illustrator 19.0.0, SVG Export Plug-In . SVG Version: 6.00 Build 0)  -->
<svg version="1.1" id="Layer_1" xmlns="http://www.w3.org/2000/svg" xmlns:xlink="http://www.w3.org/1999/xlink" x="0px" y="0px"
	 viewBox="0 0 700 700" style="enable-background:new 0 0 700 700;" xml:space="preserve">
<style type="text/css">
	.st0{fill:#231F20;}
</style>
<g id="XMLID_1_">
	<path id="XMLID_10_" class="st0" d="M138.8,134.4c-21.4,28.4-33.7,63.5-34.8,99.1c-0.3,9.7,0.7,20.4,7.8,26.9
		c4,3.7,9.5,5.4,14.8,6.6c19.2,4,39.1,1.5,58.7,1.1s40.5,1.6,56.3,13.1c14.1,10.3,22.2,26.5,32.4,40.6
		c10.2,14.1,25.3,27.3,42.6,26.1c14.8-1,26.6-12,38-21.5c19.8-16.5,42-30,65.7-40c15.5-6.5,32-11.8,44.8-22.7
		c13-11,21.1-27,25.4-43.6c3.1-11.9,4.3-24.5,1.5-36.4c-6.6-27.6-35.3-46.3-63.7-47.2c-14.6-0.4-29.7,3-43.4-1.9
		c-13.7-4.8-23.3-16.9-33.5-27.2c-18.9-19-42.6-33.5-68.6-39.9s-54.4-4.1-78.3,8c-15.8,8-29.3,20-41.7,32.6
		c-18.1,18.4-40.4,37.8-45.4,63"/>
</g>
</svg>
