<?xml version="1.0" encoding="utf-8"?>
<!-- Generator: Adobe Illustrator 19.0.0, SVG Export Plug-In . SVG Version: 6.00 Build 0)  -->
<svg version="1.1" id="Layer_1" xmlns="http://www.w3.org/2000/svg" xmlns:xlink="http://www.w3.org/1999/xlink" x="0px" y="0px"
	 viewBox="0 0 700 700" style="enable-background:new 0 0 700 700;" xml:space="preserve">
<style type="text/css">
	.st0{fill:#231F20;}
</style>
<g id="XMLID_1_">
	<path id="XMLID_10_" class="st0" d="M549.8,258.7c-26.2-21.8-51.7-2-76.5,19c-16.6,14-69.3,58-78.2,13.9v-0.1l-0.3-4.6
		c-2.1-52.1,14-119.4-28.7-160.2c-37.1-35.5-72.7-27.4-114.1-0.2c-0.1,0.1-15,8.8-17.9,11.3l-4.9,3.7l-6.5,4.3l-4.4,3.3
		c-0.1,0.3-4.4,3.1-4.6,3.2c-31.2,21.2-67.1,53.2-78.5,89.9c-15,48.8,50.6,34.2,80.9,45.7c41.8,16-32.2,59.7-42.3,101.2
		c-11.3,46.7,25.9,71.6,68.5,62.1c37.1-8.2,93.8-54.6,132.2-45.6c31.8,7.4-39.8,95.8-47.4,117.7c-6.9,19.9-11.3,36.6,2.4,52.4
		c11.4,13.2,45.1,22.6,61.5,25.7c44.8,8.8,76.5-15.3,102.9-48.7c38.5-48.4,85.1-144.2,79.7-238.8
		C572.6,295.7,570.9,276.3,549.8,258.7z"/>
</g>
</svg>
